<?xml version="1.0" encoding="UTF-8" standalone="no"?>
<!DOCTYPE svg PUBLIC "-//W3C//DTD SVG 1.1//EN"
 "http://www.w3.org/Graphics/SVG/1.1/DTD/svg11.dtd">
<!-- Generated by graphviz version 3.0.0 (20220226.1711)
 -->
<!-- Title: Mindhive 3.0 on Amazon Web Services Pages: 1 -->
<svg width="1140pt" height="1209pt"
 viewBox="0.00 0.00 1139.50 1209.00" xmlns="http://www.w3.org/2000/svg" xmlns:xlink="http://www.w3.org/1999/xlink">
<g id="graph0" class="graph" transform="scale(1 1) rotate(0) translate(144 1065)">
<title>Mindhive 3.0 on Amazon Web Services</title>
<polygon fill="white" stroke="transparent" points="-144,144 -144,-1065 995.5,-1065 995.5,144 -144,144"/>
<text text-anchor="middle" x="425.75" y="-10.8" font-family="Sans-Serif" font-size="24.00" fill="#2d3436">Mindhive 3.0 on Amazon Web Services</text>
<g id="clust1" class="cluster">
<title>cluster_AWS</title>
<path fill="#e5f5fd" stroke="#aeb6be" d="M139.5,-42C139.5,-42 831.5,-42 831.5,-42 837.5,-42 843.5,-48 843.5,-54 843.5,-54 843.5,-901 843.5,-901 843.5,-907 837.5,-913 831.5,-913 831.5,-913 139.5,-913 139.5,-913 133.5,-913 127.5,-907 127.5,-901 127.5,-901 127.5,-54 127.5,-54 127.5,-48 133.5,-42 139.5,-42"/>
<text text-anchor="middle" x="149.5" y="-899.4" font-family="Sans-Serif" font-size="12.00" fill="#2d3436">AWS</text>
</g>
<g id="clust2" class="cluster">
<title>cluster_Front End Tier</title>
<path fill="#ebf3e7" stroke="#aeb6be" d="M585.5,-50C585.5,-50 823.5,-50 823.5,-50 829.5,-50 835.5,-56 835.5,-62 835.5,-62 835.5,-785 835.5,-785 835.5,-791 829.5,-797 823.5,-797 823.5,-797 585.5,-797 585.5,-797 579.5,-797 573.5,-791 573.5,-785 573.5,-785 573.5,-62 573.5,-62 573.5,-56 579.5,-50 585.5,-50"/>
<text text-anchor="middle" x="619.5" y="-783.4" font-family="Sans-Serif" font-size="12.00" fill="#2d3436">Front End Tier</text>
</g>
<g id="clust3" class="cluster">
<title>cluster_Back End Tier</title>
<path fill="#ebf3e7" stroke="#aeb6be" d="M147.5,-599C147.5,-599 553.5,-599 553.5,-599 559.5,-599 565.5,-605 565.5,-611 565.5,-611 565.5,-872 565.5,-872 565.5,-878 559.5,-884 553.5,-884 553.5,-884 147.5,-884 147.5,-884 141.5,-884 135.5,-878 135.5,-872 135.5,-872 135.5,-611 135.5,-611 135.5,-605 141.5,-599 147.5,-599"/>
<text text-anchor="middle" x="181" y="-870.4" font-family="Sans-Serif" font-size="12.00" fill="#2d3436">Back End Tier</text>
</g>
<g id="clust4" class="cluster">
<title>cluster_Autoscaling Group</title>
<path fill="#ece8f6" stroke="#aeb6be" d="M275.5,-607C275.5,-607 545.5,-607 545.5,-607 551.5,-607 557.5,-613 557.5,-619 557.5,-619 557.5,-843 557.5,-843 557.5,-849 551.5,-855 545.5,-855 545.5,-855 275.5,-855 275.5,-855 269.5,-855 263.5,-849 263.5,-843 263.5,-843 263.5,-619 263.5,-619 263.5,-613 269.5,-607 275.5,-607"/>
<text text-anchor="middle" x="321.5" y="-841.4" font-family="Sans-Serif" font-size="12.00" fill="#2d3436">Autoscaling Group</text>
</g>
<g id="clust5" class="cluster">
<title>cluster_Availability Zone 1</title>
<path fill="#fdf7e3" stroke="#aeb6be" d="M283.5,-615C283.5,-615 537.5,-615 537.5,-615 543.5,-615 549.5,-621 549.5,-627 549.5,-627 549.5,-814 549.5,-814 549.5,-820 543.5,-826 537.5,-826 537.5,-826 283.5,-826 283.5,-826 277.5,-826 271.5,-820 271.5,-814 271.5,-814 271.5,-627 271.5,-627 271.5,-621 277.5,-615 283.5,-615"/>
<text text-anchor="middle" x="329.5" y="-812.4" font-family="Sans-Serif" font-size="12.00" fill="#2d3436">Availability Zone 1</text>
</g>
<g id="clust6" class="cluster">
<title>cluster_EC2 Instance</title>
<path fill="#e5f5fd" stroke="#aeb6be" d="M291.5,-623C291.5,-623 529.5,-623 529.5,-623 535.5,-623 541.5,-629 541.5,-635 541.5,-635 541.5,-785 541.5,-785 541.5,-791 535.5,-797 529.5,-797 529.5,-797 291.5,-797 291.5,-797 285.5,-797 279.5,-791 279.5,-785 279.5,-785 279.5,-635 279.5,-635 279.5,-629 285.5,-623 291.5,-623"/>
<text text-anchor="middle" x="324" y="-783.4" font-family="Sans-Serif" font-size="12.00" fill="#2d3436">EC2 Instance</text>
</g>
<!-- 5f3c618b871441b7ae6b7c25b020301a -->
<g id="node1" class="node">
<title>5f3c618b871441b7ae6b7c25b020301a</title>
<image xlink:href="/Users/edwardatmindhive/tmp/git-personal/cloud-infrastructure-examples/aws-diagrams/.env/lib/python3.9/site-packages/resources/onprem/client/users.png" width="101px" height="101px" preserveAspectRatio="xMinYMin meet" x="0" y="-750"/>
<text text-anchor="middle" x="50.5" y="-634.6" font-family="Sans-Serif" font-size="13.00" fill="#2d3436">Users</text>
</g>
<!-- 22e2a6ff9ebc481b88bd99e30f0d458f -->
<g id="node2" class="node">
<title>22e2a6ff9ebc481b88bd99e30f0d458f</title>
<image xlink:href="/Users/edwardatmindhive/tmp/git-personal/cloud-infrastructure-examples/aws-diagrams/.env/lib/python3.9/site-packages/resources/aws/network/route-53.png" width="101px" height="101px" preserveAspectRatio="xMinYMin meet" x="726" y="-750"/>
<text text-anchor="middle" x="776.5" y="-634.6" font-family="Sans-Serif" font-size="13.00" fill="#2d3436">DNS &#45; Route 53</text>
</g>
<!-- 0949779a9a1a40e181f7883074c3ade9 -->
<g id="node3" class="node">
<title>0949779a9a1a40e181f7883074c3ade9</title>
<image xlink:href="/Users/edwardatmindhive/tmp/git-personal/cloud-infrastructure-examples/aws-diagrams/.env/lib/python3.9/site-packages/resources/aws/security/waf.png" width="101px" height="101px" preserveAspectRatio="xMinYMin meet" x="726" y="-559"/>
<text text-anchor="middle" x="776.5" y="-443.6" font-family="Sans-Serif" font-size="13.00" fill="#2d3436">Filtering &#45; WAF</text>
</g>
<!-- 22e2a6ff9ebc481b88bd99e30f0d458f&#45;&gt;0949779a9a1a40e181f7883074c3ade9 -->
<g id="edge1" class="edge">
<title>22e2a6ff9ebc481b88bd99e30f0d458f&#45;&gt;0949779a9a1a40e181f7883074c3ade9</title>
<path fill="none" stroke="#7b8894" d="M776.5,-630.81C776.5,-630.81 776.5,-587.22 776.5,-587.22"/>
<polygon fill="#7b8894" stroke="#7b8894" points="780,-587.22 776.5,-577.22 773,-587.22 780,-587.22"/>
</g>
<!-- 3f46b07ab1e2437888d5ea72c4b6f490 -->
<g id="node4" class="node">
<title>3f46b07ab1e2437888d5ea72c4b6f490</title>
<image xlink:href="/Users/edwardatmindhive/tmp/git-personal/cloud-infrastructure-examples/aws-diagrams/.env/lib/python3.9/site-packages/resources/aws/network/cloudfront.png" width="101px" height="101px" preserveAspectRatio="xMinYMin meet" x="726" y="-368"/>
<text text-anchor="middle" x="776.5" y="-252.6" font-family="Sans-Serif" font-size="13.00" fill="#2d3436">Cloudfront</text>
</g>
<!-- 0949779a9a1a40e181f7883074c3ade9&#45;&gt;3f46b07ab1e2437888d5ea72c4b6f490 -->
<g id="edge2" class="edge">
<title>0949779a9a1a40e181f7883074c3ade9&#45;&gt;3f46b07ab1e2437888d5ea72c4b6f490</title>
<path fill="none" stroke="#7b8894" d="M776.5,-439.81C776.5,-439.81 776.5,-396.22 776.5,-396.22"/>
<polygon fill="#7b8894" stroke="#7b8894" points="780,-396.22 776.5,-386.22 773,-396.22 780,-396.22"/>
</g>
<!-- 444c795482a04e5b8eb16dc7e7f73682 -->
<g id="node5" class="node">
<title>444c795482a04e5b8eb16dc7e7f73682</title>
<image xlink:href="/Users/edwardatmindhive/tmp/git-personal/cloud-infrastructure-examples/aws-diagrams/.env/lib/python3.9/site-packages/resources/aws/storage/simple-storage-service-s3.png" width="101px" height="101px" preserveAspectRatio="xMinYMin meet" x="726" y="-177"/>
<text text-anchor="middle" x="776.5" y="-61.6" font-family="Sans-Serif" font-size="13.00" fill="#2d3436">S3</text>
</g>
<!-- 3f46b07ab1e2437888d5ea72c4b6f490&#45;&gt;444c795482a04e5b8eb16dc7e7f73682 -->
<g id="edge3" class="edge">
<title>3f46b07ab1e2437888d5ea72c4b6f490&#45;&gt;444c795482a04e5b8eb16dc7e7f73682</title>
<path fill="none" stroke="#7b8894" d="M776.5,-238.81C776.5,-238.81 776.5,-195.22 776.5,-195.22"/>
<polygon fill="#7b8894" stroke="#7b8894" points="773,-238.81 776.5,-248.81 780,-238.81 773,-238.81"/>
</g>
<!-- 04ec5455670a42b4a965dabf944c2f8a -->
<g id="node6" class="node">
<title>04ec5455670a42b4a965dabf944c2f8a</title>
<image xlink:href="/Users/edwardatmindhive/tmp/git-personal/cloud-infrastructure-examples/aws-diagrams/.env/lib/python3.9/site-packages/resources/aws/security/shield.png" width="101px" height="101px" preserveAspectRatio="xMinYMin meet" x="582" y="-750"/>
<text text-anchor="middle" x="632.5" y="-634.6" font-family="Sans-Serif" font-size="13.00" fill="#2d3436">AWS Shield</text>
</g>
<!-- 0dd19dc6f9704130aaf86f80da3e1586 -->
<g id="node7" class="node">
<title>0dd19dc6f9704130aaf86f80da3e1586</title>
<image xlink:href="/Users/edwardatmindhive/tmp/git-personal/cloud-infrastructure-examples/aws-diagrams/.env/lib/python3.9/site-packages/resources/aws/compute/fargate.png" width="101px" height="101px" preserveAspectRatio="xMinYMin meet" x="144" y="-750"/>
<text text-anchor="middle" x="194.5" y="-634.6" font-family="Sans-Serif" font-size="13.00" fill="#2d3436">Fargate</text>
</g>
<!-- 50b630fd8d87409d9f34d48ce19765e8 -->
<g id="node8" class="node">
<title>50b630fd8d87409d9f34d48ce19765e8</title>
<image xlink:href="/Users/edwardatmindhive/tmp/git-personal/cloud-infrastructure-examples/aws-diagrams/.env/lib/python3.9/site-packages/resources/aws/compute/elastic-container-service-container.png" width="101px" height="101px" preserveAspectRatio="xMinYMin meet" x="432" y="-750"/>
<text text-anchor="middle" x="482.5" y="-634.6" font-family="Sans-Serif" font-size="13.00" fill="#2d3436">container 1</text>
</g>
<!-- 4f9271aa59d644a582ebf2baca1c9a8e -->
<g id="node9" class="node">
<title>4f9271aa59d644a582ebf2baca1c9a8e</title>
<image xlink:href="/Users/edwardatmindhive/tmp/git-personal/cloud-infrastructure-examples/aws-diagrams/.env/lib/python3.9/site-packages/resources/aws/compute/elastic-container-service-container.png" width="101px" height="101px" preserveAspectRatio="xMinYMin meet" x="288" y="-750"/>
<text text-anchor="middle" x="338.5" y="-634.6" font-family="Sans-Serif" font-size="13.00" fill="#2d3436">container n</text>
</g>
</g>
</svg>
